<mxfile host="app.diagrams.net" agent="Mozilla/5.0 (Windows NT 10.0; Win64; x64) AppleWebKit/537.36 (KHTML, like Gecko) Chrome/127.0.0.0 Safari/537.36" version="24.7.7">
  <diagram id="C5RBs43oDa-KdzZeNtuy" name="Page-1">
    <mxGraphModel grid="1" page="1" gridSize="10" guides="1" tooltips="1" connect="1" arrows="1" fold="1" pageScale="1" pageWidth="1169" pageHeight="827" background="none" math="0" shadow="0">
      <root>
        <mxCell id="WIyWlLk6GJQsqaUBKTNV-0" />
        <mxCell id="WIyWlLk6GJQsqaUBKTNV-1" parent="WIyWlLk6GJQsqaUBKTNV-0" />
        <mxCell id="MpU0YCQf8KXyQp7wxGWL-0" value="InÃ­cio" style="rounded=1;whiteSpace=wrap;html=1;" vertex="1" parent="WIyWlLk6GJQsqaUBKTNV-1">
          <mxGeometry x="-320" y="55" width="130" height="40" as="geometry" />
        </mxCell>
        <mxCell id="MpU0YCQf8KXyQp7wxGWL-2" style="edgeStyle=orthogonalEdgeStyle;rounded=0;orthogonalLoop=1;jettySize=auto;html=1;entryX=0;entryY=0.5;entryDx=0;entryDy=0;" edge="1" parent="WIyWlLk6GJQsqaUBKTNV-1" source="MpU0YCQf8KXyQp7wxGWL-1" target="MpU0YCQf8KXyQp7wxGWL-0">
          <mxGeometry relative="1" as="geometry" />
        </mxCell>
        <mxCell id="MpU0YCQf8KXyQp7wxGWL-1" value="inteiro&lt;br&gt;idadeColega1, idadeColega2, idadeColega3, idadeColega4, idadeColega5, minhaIdade, somaDasIdades;&lt;br&gt;caracter ondeIr, dose" style="rounded=0;whiteSpace=wrap;html=1;" vertex="1" parent="WIyWlLk6GJQsqaUBKTNV-1">
          <mxGeometry x="-620" y="25" width="219" height="100" as="geometry" />
        </mxCell>
        <mxCell id="MpU0YCQf8KXyQp7wxGWL-3" value="&quot;Qual a sua idade?&quot;" style="shape=display;whiteSpace=wrap;html=1;" vertex="1" parent="WIyWlLk6GJQsqaUBKTNV-1">
          <mxGeometry x="-320" y="155" width="130" height="40" as="geometry" />
        </mxCell>
        <mxCell id="MpU0YCQf8KXyQp7wxGWL-4" value="minhaIdade" style="html=1;strokeWidth=2;shape=manualInput;whiteSpace=wrap;rounded=1;size=26;arcSize=0;" vertex="1" parent="WIyWlLk6GJQsqaUBKTNV-1">
          <mxGeometry x="-320" y="255" width="130" height="60" as="geometry" />
        </mxCell>
        <mxCell id="MpU0YCQf8KXyQp7wxGWL-9" style="edgeStyle=orthogonalEdgeStyle;rounded=0;orthogonalLoop=1;jettySize=auto;html=1;exitX=0;exitY=0;exitDx=71.25;exitDy=40;exitPerimeter=0;entryX=0.543;entryY=0.203;entryDx=0;entryDy=0;entryPerimeter=0;" edge="1" parent="WIyWlLk6GJQsqaUBKTNV-1" source="MpU0YCQf8KXyQp7wxGWL-3" target="MpU0YCQf8KXyQp7wxGWL-4">
          <mxGeometry relative="1" as="geometry" />
        </mxCell>
        <mxCell id="MpU0YCQf8KXyQp7wxGWL-10" style="edgeStyle=orthogonalEdgeStyle;rounded=0;orthogonalLoop=1;jettySize=auto;html=1;exitX=0.5;exitY=1;exitDx=0;exitDy=0;entryX=0.5;entryY=-0.015;entryDx=0;entryDy=0;entryPerimeter=0;" edge="1" parent="WIyWlLk6GJQsqaUBKTNV-1">
          <mxGeometry relative="1" as="geometry">
            <mxPoint x="-250" y="95" as="sourcePoint" />
            <mxPoint x="-250" y="154.39999999999998" as="targetPoint" />
          </mxGeometry>
        </mxCell>
        <mxCell id="MpU0YCQf8KXyQp7wxGWL-11" value="&quot;Qual a idade do colega 1?&quot;" style="shape=display;whiteSpace=wrap;html=1;" vertex="1" parent="WIyWlLk6GJQsqaUBKTNV-1">
          <mxGeometry x="-326" y="365" width="154" height="49" as="geometry" />
        </mxCell>
        <mxCell id="MpU0YCQf8KXyQp7wxGWL-12" value="idadeColega1" style="html=1;strokeWidth=2;shape=manualInput;whiteSpace=wrap;rounded=1;size=26;arcSize=0;" vertex="1" parent="WIyWlLk6GJQsqaUBKTNV-1">
          <mxGeometry x="-314" y="474" width="130" height="60" as="geometry" />
        </mxCell>
        <mxCell id="MpU0YCQf8KXyQp7wxGWL-13" style="edgeStyle=orthogonalEdgeStyle;rounded=0;orthogonalLoop=1;jettySize=auto;html=1;exitX=0;exitY=0;exitDx=71.25;exitDy=40;exitPerimeter=0;entryX=0.543;entryY=0.203;entryDx=0;entryDy=0;entryPerimeter=0;" edge="1" parent="WIyWlLk6GJQsqaUBKTNV-1">
          <mxGeometry relative="1" as="geometry">
            <mxPoint x="-248.75" y="414" as="sourcePoint" />
            <mxPoint x="-249.41000000000008" y="486.18000000000006" as="targetPoint" />
          </mxGeometry>
        </mxCell>
        <mxCell id="MpU0YCQf8KXyQp7wxGWL-14" style="edgeStyle=orthogonalEdgeStyle;rounded=0;orthogonalLoop=1;jettySize=auto;html=1;exitX=0.5;exitY=1;exitDx=0;exitDy=0;entryX=0.5;entryY=-0.015;entryDx=0;entryDy=0;entryPerimeter=0;" edge="1" parent="WIyWlLk6GJQsqaUBKTNV-1" target="MpU0YCQf8KXyQp7wxGWL-11">
          <mxGeometry relative="1" as="geometry">
            <mxPoint x="-249" y="314" as="sourcePoint" />
          </mxGeometry>
        </mxCell>
        <mxCell id="MpU0YCQf8KXyQp7wxGWL-16" value="idadeColega2" style="html=1;strokeWidth=2;shape=manualInput;whiteSpace=wrap;rounded=1;size=26;arcSize=0;" vertex="1" parent="WIyWlLk6GJQsqaUBKTNV-1">
          <mxGeometry x="-314" y="694" width="130" height="60" as="geometry" />
        </mxCell>
        <mxCell id="MpU0YCQf8KXyQp7wxGWL-17" style="edgeStyle=orthogonalEdgeStyle;rounded=0;orthogonalLoop=1;jettySize=auto;html=1;exitX=0;exitY=0;exitDx=71.25;exitDy=40;exitPerimeter=0;entryX=0.543;entryY=0.203;entryDx=0;entryDy=0;entryPerimeter=0;" edge="1" parent="WIyWlLk6GJQsqaUBKTNV-1">
          <mxGeometry relative="1" as="geometry">
            <mxPoint x="-249.75" y="635" as="sourcePoint" />
            <mxPoint x="-250.41000000000008" y="707.1800000000001" as="targetPoint" />
          </mxGeometry>
        </mxCell>
        <mxCell id="MpU0YCQf8KXyQp7wxGWL-18" style="edgeStyle=orthogonalEdgeStyle;rounded=0;orthogonalLoop=1;jettySize=auto;html=1;exitX=0.5;exitY=1;exitDx=0;exitDy=0;entryX=0.5;entryY=-0.015;entryDx=0;entryDy=0;entryPerimeter=0;" edge="1" parent="WIyWlLk6GJQsqaUBKTNV-1">
          <mxGeometry relative="1" as="geometry">
            <mxPoint x="-249" y="534" as="sourcePoint" />
            <mxPoint x="-249" y="593.4000000000001" as="targetPoint" />
          </mxGeometry>
        </mxCell>
        <mxCell id="lA4oFmGLLZb_DYhbLBO6-1" value="&quot;Qual a idade do colega 2?&quot;" style="shape=display;whiteSpace=wrap;html=1;" vertex="1" parent="WIyWlLk6GJQsqaUBKTNV-1">
          <mxGeometry x="-337" y="594" width="154" height="49" as="geometry" />
        </mxCell>
        <mxCell id="GoQJRWWMJ3RlQegqBFur-0" value="idadeColega3" style="html=1;strokeWidth=2;shape=manualInput;whiteSpace=wrap;rounded=1;size=26;arcSize=0;" vertex="1" parent="WIyWlLk6GJQsqaUBKTNV-1">
          <mxGeometry x="-315" y="914" width="130" height="60" as="geometry" />
        </mxCell>
        <mxCell id="GoQJRWWMJ3RlQegqBFur-1" style="edgeStyle=orthogonalEdgeStyle;rounded=0;orthogonalLoop=1;jettySize=auto;html=1;exitX=0;exitY=0;exitDx=71.25;exitDy=40;exitPerimeter=0;entryX=0.543;entryY=0.203;entryDx=0;entryDy=0;entryPerimeter=0;" edge="1" parent="WIyWlLk6GJQsqaUBKTNV-1">
          <mxGeometry relative="1" as="geometry">
            <mxPoint x="-250.75" y="855" as="sourcePoint" />
            <mxPoint x="-251.41000000000008" y="927.1800000000001" as="targetPoint" />
            <Array as="points">
              <mxPoint x="-251" y="892" />
            </Array>
          </mxGeometry>
        </mxCell>
        <mxCell id="GoQJRWWMJ3RlQegqBFur-2" style="edgeStyle=orthogonalEdgeStyle;rounded=0;orthogonalLoop=1;jettySize=auto;html=1;exitX=0.5;exitY=1;exitDx=0;exitDy=0;entryX=0.5;entryY=-0.015;entryDx=0;entryDy=0;entryPerimeter=0;" edge="1" parent="WIyWlLk6GJQsqaUBKTNV-1">
          <mxGeometry relative="1" as="geometry">
            <mxPoint x="-250" y="754" as="sourcePoint" />
            <mxPoint x="-250" y="813.4000000000001" as="targetPoint" />
          </mxGeometry>
        </mxCell>
        <mxCell id="GoQJRWWMJ3RlQegqBFur-3" value="&quot;Qual a idade do colega 3?&quot;" style="shape=display;whiteSpace=wrap;html=1;" vertex="1" parent="WIyWlLk6GJQsqaUBKTNV-1">
          <mxGeometry x="-338" y="814" width="154" height="49" as="geometry" />
        </mxCell>
        <mxCell id="GoQJRWWMJ3RlQegqBFur-4" value="idadeColega5" style="html=1;strokeWidth=2;shape=manualInput;whiteSpace=wrap;rounded=1;size=26;arcSize=0;" vertex="1" parent="WIyWlLk6GJQsqaUBKTNV-1">
          <mxGeometry x="-316" y="1133" width="130" height="60" as="geometry" />
        </mxCell>
        <mxCell id="GoQJRWWMJ3RlQegqBFur-5" style="edgeStyle=orthogonalEdgeStyle;rounded=0;orthogonalLoop=1;jettySize=auto;html=1;exitX=0;exitY=0;exitDx=71.25;exitDy=40;exitPerimeter=0;entryX=0.543;entryY=0.203;entryDx=0;entryDy=0;entryPerimeter=0;" edge="1" parent="WIyWlLk6GJQsqaUBKTNV-1">
          <mxGeometry relative="1" as="geometry">
            <mxPoint x="-251.75" y="1074" as="sourcePoint" />
            <mxPoint x="-252.41000000000008" y="1146.18" as="targetPoint" />
            <Array as="points">
              <mxPoint x="-252" y="1111" />
            </Array>
          </mxGeometry>
        </mxCell>
        <mxCell id="GoQJRWWMJ3RlQegqBFur-6" style="edgeStyle=orthogonalEdgeStyle;rounded=0;orthogonalLoop=1;jettySize=auto;html=1;exitX=0.5;exitY=1;exitDx=0;exitDy=0;entryX=0.5;entryY=-0.015;entryDx=0;entryDy=0;entryPerimeter=0;" edge="1" parent="WIyWlLk6GJQsqaUBKTNV-1">
          <mxGeometry relative="1" as="geometry">
            <mxPoint x="-251" y="973" as="sourcePoint" />
            <mxPoint x="-251" y="1032.4" as="targetPoint" />
          </mxGeometry>
        </mxCell>
        <mxCell id="GoQJRWWMJ3RlQegqBFur-7" value="&quot;Qual a idade do colega 4&lt;span style=&quot;background-color: initial;&quot;&gt;?&quot;&lt;/span&gt;" style="shape=display;whiteSpace=wrap;html=1;" vertex="1" parent="WIyWlLk6GJQsqaUBKTNV-1">
          <mxGeometry x="-339" y="1033" width="154" height="49" as="geometry" />
        </mxCell>
        <mxCell id="lA4oFmGLLZb_DYhbLBO6-3" style="edgeStyle=orthogonalEdgeStyle;rounded=0;orthogonalLoop=1;jettySize=auto;html=1;exitX=0.5;exitY=1;exitDx=0;exitDy=0;entryX=0.5;entryY=0;entryDx=0;entryDy=0;" edge="1" parent="WIyWlLk6GJQsqaUBKTNV-1" source="GoQJRWWMJ3RlQegqBFur-8" target="lA4oFmGLLZb_DYhbLBO6-2">
          <mxGeometry relative="1" as="geometry" />
        </mxCell>
        <mxCell id="GoQJRWWMJ3RlQegqBFur-8" value="idadeColega5" style="html=1;strokeWidth=2;shape=manualInput;whiteSpace=wrap;rounded=1;size=26;arcSize=0;" vertex="1" parent="WIyWlLk6GJQsqaUBKTNV-1">
          <mxGeometry x="-315" y="1353" width="130" height="60" as="geometry" />
        </mxCell>
        <mxCell id="GoQJRWWMJ3RlQegqBFur-9" style="edgeStyle=orthogonalEdgeStyle;rounded=0;orthogonalLoop=1;jettySize=auto;html=1;exitX=0;exitY=0;exitDx=71.25;exitDy=40;exitPerimeter=0;entryX=0.543;entryY=0.203;entryDx=0;entryDy=0;entryPerimeter=0;" edge="1" parent="WIyWlLk6GJQsqaUBKTNV-1">
          <mxGeometry relative="1" as="geometry">
            <mxPoint x="-250.75" y="1294" as="sourcePoint" />
            <mxPoint x="-251.41000000000008" y="1366.18" as="targetPoint" />
            <Array as="points">
              <mxPoint x="-251" y="1331" />
            </Array>
          </mxGeometry>
        </mxCell>
        <mxCell id="GoQJRWWMJ3RlQegqBFur-10" style="edgeStyle=orthogonalEdgeStyle;rounded=0;orthogonalLoop=1;jettySize=auto;html=1;exitX=0.5;exitY=1;exitDx=0;exitDy=0;entryX=0.5;entryY=-0.015;entryDx=0;entryDy=0;entryPerimeter=0;" edge="1" parent="WIyWlLk6GJQsqaUBKTNV-1">
          <mxGeometry relative="1" as="geometry">
            <mxPoint x="-250" y="1193" as="sourcePoint" />
            <mxPoint x="-250" y="1252.4" as="targetPoint" />
          </mxGeometry>
        </mxCell>
        <mxCell id="GoQJRWWMJ3RlQegqBFur-11" value="&quot;Qual a idade do colega 5&lt;span style=&quot;background-color: initial;&quot;&gt;?&quot;&lt;/span&gt;" style="shape=display;whiteSpace=wrap;html=1;" vertex="1" parent="WIyWlLk6GJQsqaUBKTNV-1">
          <mxGeometry x="-338" y="1253" width="154" height="49" as="geometry" />
        </mxCell>
        <mxCell id="lA4oFmGLLZb_DYhbLBO6-2" value="somaDasIdades = soma de todas as idades informadas" style="rounded=0;whiteSpace=wrap;html=1;" vertex="1" parent="WIyWlLk6GJQsqaUBKTNV-1">
          <mxGeometry x="-349.5" y="1475" width="199" height="70" as="geometry" />
        </mxCell>
        <mxCell id="GoQJRWWMJ3RlQegqBFur-18" style="edgeStyle=orthogonalEdgeStyle;rounded=0;orthogonalLoop=1;jettySize=auto;html=1;exitX=1;exitY=0.5;exitDx=0;exitDy=0;entryX=0;entryY=0.5;entryDx=0;entryDy=0;" edge="1" parent="WIyWlLk6GJQsqaUBKTNV-1" source="GoQJRWWMJ3RlQegqBFur-12" target="lA4oFmGLLZb_DYhbLBO6-4">
          <mxGeometry relative="1" as="geometry" />
        </mxCell>
        <mxCell id="GoQJRWWMJ3RlQegqBFur-12" value="Soma &amp;gt;= 108" style="rhombus;whiteSpace=wrap;html=1;" vertex="1" parent="WIyWlLk6GJQsqaUBKTNV-1">
          <mxGeometry x="-314" y="1615" width="129" height="100" as="geometry" />
        </mxCell>
        <mxCell id="GoQJRWWMJ3RlQegqBFur-17" style="edgeStyle=orthogonalEdgeStyle;rounded=0;orthogonalLoop=1;jettySize=auto;html=1;exitX=0;exitY=0;exitDx=96.25;exitDy=70;exitPerimeter=0;entryX=0.5;entryY=0;entryDx=0;entryDy=0;" edge="1" parent="WIyWlLk6GJQsqaUBKTNV-1" target="GoQJRWWMJ3RlQegqBFur-12">
          <mxGeometry relative="1" as="geometry">
            <mxPoint x="-249.75" y="1545" as="sourcePoint" />
          </mxGeometry>
        </mxCell>
        <mxCell id="GoQJRWWMJ3RlQegqBFur-20" value="" style="edgeStyle=orthogonalEdgeStyle;rounded=0;orthogonalLoop=1;jettySize=auto;html=1;" edge="1" parent="WIyWlLk6GJQsqaUBKTNV-1" source="lA4oFmGLLZb_DYhbLBO6-4" target="lA4oFmGLLZb_DYhbLBO6-10">
          <mxGeometry relative="1" as="geometry" />
        </mxCell>
        <mxCell id="GoQJRWWMJ3RlQegqBFur-21" value="" style="edgeStyle=orthogonalEdgeStyle;rounded=0;orthogonalLoop=1;jettySize=auto;html=1;" edge="1" parent="WIyWlLk6GJQsqaUBKTNV-1" source="lA4oFmGLLZb_DYhbLBO6-4" target="lA4oFmGLLZb_DYhbLBO6-9">
          <mxGeometry relative="1" as="geometry" />
        </mxCell>
        <mxCell id="lA4oFmGLLZb_DYhbLBO6-4" value="IdadeColega1,2,3,4,5 e minhaIdade&lt;br&gt;&amp;gt;=18" style="rhombus;whiteSpace=wrap;html=1;" vertex="1" parent="WIyWlLk6GJQsqaUBKTNV-1">
          <mxGeometry x="-60" y="1597.5" width="186.5" height="135" as="geometry" />
        </mxCell>
        <mxCell id="9peToC7sFNTnHr3aSLA_-14" style="edgeStyle=orthogonalEdgeStyle;rounded=0;orthogonalLoop=1;jettySize=auto;html=1;exitX=0;exitY=0;exitDx=95.625;exitDy=60;exitPerimeter=0;entryX=0;entryY=0.5;entryDx=0;entryDy=0;" edge="1" parent="WIyWlLk6GJQsqaUBKTNV-1" source="lA4oFmGLLZb_DYhbLBO6-9" target="lA4oFmGLLZb_DYhbLBO6-23">
          <mxGeometry relative="1" as="geometry" />
        </mxCell>
        <mxCell id="lA4oFmGLLZb_DYhbLBO6-9" value="&quot;NÃ£o podemos sair.&quot;" style="shape=display;whiteSpace=wrap;html=1;" vertex="1" parent="WIyWlLk6GJQsqaUBKTNV-1">
          <mxGeometry x="-55.25" y="1785" width="177" height="60" as="geometry" />
        </mxCell>
        <mxCell id="lA4oFmGLLZb_DYhbLBO6-25" style="edgeStyle=orthogonalEdgeStyle;rounded=0;orthogonalLoop=1;jettySize=auto;html=1;entryX=0;entryY=0.5;entryDx=0;entryDy=0;" edge="1" parent="WIyWlLk6GJQsqaUBKTNV-1" source="lA4oFmGLLZb_DYhbLBO6-10">
          <mxGeometry relative="1" as="geometry">
            <mxPoint x="480" y="1665" as="targetPoint" />
          </mxGeometry>
        </mxCell>
        <mxCell id="lA4oFmGLLZb_DYhbLBO6-10" value="&quot;Onde vocÃª quer ir?&lt;div&gt;b = Bar&lt;/div&gt;&lt;div&gt;s = show&quot;&lt;/div&gt;" style="shape=display;whiteSpace=wrap;html=1;" vertex="1" parent="WIyWlLk6GJQsqaUBKTNV-1">
          <mxGeometry x="230" y="1635" width="177" height="60" as="geometry" />
        </mxCell>
        <mxCell id="lA4oFmGLLZb_DYhbLBO6-13" value="Sim" style="text;html=1;align=center;verticalAlign=middle;whiteSpace=wrap;rounded=0;" vertex="1" parent="WIyWlLk6GJQsqaUBKTNV-1">
          <mxGeometry x="-184" y="1635" width="60" height="30" as="geometry" />
        </mxCell>
        <mxCell id="lA4oFmGLLZb_DYhbLBO6-16" value="Sim" style="text;html=1;align=center;verticalAlign=middle;whiteSpace=wrap;rounded=0;" vertex="1" parent="WIyWlLk6GJQsqaUBKTNV-1">
          <mxGeometry x="142" y="1629" width="60" height="30" as="geometry" />
        </mxCell>
        <mxCell id="lA4oFmGLLZb_DYhbLBO6-17" value="NÃ£o" style="text;html=1;align=center;verticalAlign=middle;whiteSpace=wrap;rounded=0;" vertex="1" parent="WIyWlLk6GJQsqaUBKTNV-1">
          <mxGeometry x="-10" y="1735" width="60" height="30" as="geometry" />
        </mxCell>
        <mxCell id="lA4oFmGLLZb_DYhbLBO6-23" value="Fim do algoritmo&lt;span style=&quot;color: rgba(0, 0, 0, 0); font-family: monospace; font-size: 0px; text-align: start; text-wrap: nowrap;&quot;&gt;%3CmxGraphModel%3E%3Croot%3E%3CmxCell%20id%3D%220%22%2F%3E%3CmxCell%20id%3D%221%22%20parent%3D%220%22%2F%3E%3CmxCell%20id%3D%222%22%20value%3D%22%22%20style%3D%22rounded%3D0%3BwhiteSpace%3Dwrap%3Bhtml%3D1%3B%22%20vertex%3D%221%22%20parent%3D%221%22%3E%3CmxGeometry%20x%3D%22-120%22%20y%3D%22140%22%20width%3D%22130%22%20height%3D%2240%22%20as%3D%22geometry%22%2F%3E%3C%2FmxCell%3E%3C%2Froot%3E%3C%2FmxGraphModel%3E&lt;/span&gt;" style="rounded=1;whiteSpace=wrap;html=1;" vertex="1" parent="WIyWlLk6GJQsqaUBKTNV-1">
          <mxGeometry x="280" y="2025" width="188.25" height="80" as="geometry" />
        </mxCell>
        <mxCell id="GoQJRWWMJ3RlQegqBFur-23" value="NÃ£o" style="text;html=1;align=center;verticalAlign=middle;whiteSpace=wrap;rounded=0;" vertex="1" parent="WIyWlLk6GJQsqaUBKTNV-1">
          <mxGeometry x="-316" y="1715" width="60" height="30" as="geometry" />
        </mxCell>
        <mxCell id="GoQJRWWMJ3RlQegqBFur-28" style="edgeStyle=orthogonalEdgeStyle;rounded=0;orthogonalLoop=1;jettySize=auto;html=1;exitX=0.5;exitY=1;exitDx=0;exitDy=0;entryX=0;entryY=0.5;entryDx=0;entryDy=0;entryPerimeter=0;" edge="1" parent="WIyWlLk6GJQsqaUBKTNV-1" source="GoQJRWWMJ3RlQegqBFur-12" target="lA4oFmGLLZb_DYhbLBO6-9">
          <mxGeometry relative="1" as="geometry" />
        </mxCell>
        <mxCell id="Xgqi5hH7NTYgZCnQ6lqg-0" style="edgeStyle=orthogonalEdgeStyle;rounded=0;orthogonalLoop=1;jettySize=auto;html=1;exitX=1;exitY=0.75;exitDx=0;exitDy=0;" edge="1" parent="WIyWlLk6GJQsqaUBKTNV-1" source="9peToC7sFNTnHr3aSLA_-1" target="9peToC7sFNTnHr3aSLA_-2">
          <mxGeometry relative="1" as="geometry" />
        </mxCell>
        <mxCell id="9peToC7sFNTnHr3aSLA_-1" value="&lt;br&gt;ondeIr" style="html=1;strokeWidth=2;shape=manualInput;whiteSpace=wrap;rounded=1;size=26;arcSize=0;" vertex="1" parent="WIyWlLk6GJQsqaUBKTNV-1">
          <mxGeometry x="480" y="1620" width="130" height="60" as="geometry" />
        </mxCell>
        <mxCell id="9peToC7sFNTnHr3aSLA_-7" style="edgeStyle=orthogonalEdgeStyle;rounded=0;orthogonalLoop=1;jettySize=auto;html=1;exitX=0.5;exitY=1;exitDx=0;exitDy=0;entryX=0.5;entryY=0;entryDx=0;entryDy=0;" edge="1" parent="WIyWlLk6GJQsqaUBKTNV-1" source="9peToC7sFNTnHr3aSLA_-2" target="9peToC7sFNTnHr3aSLA_-3">
          <mxGeometry relative="1" as="geometry" />
        </mxCell>
        <mxCell id="9peToC7sFNTnHr3aSLA_-2" value="ondeIr = &#39;b&#39;" style="rhombus;whiteSpace=wrap;html=1;" vertex="1" parent="WIyWlLk6GJQsqaUBKTNV-1">
          <mxGeometry x="690" y="1615" width="129" height="100" as="geometry" />
        </mxCell>
        <mxCell id="9peToC7sFNTnHr3aSLA_-9" value="" style="edgeStyle=orthogonalEdgeStyle;rounded=0;orthogonalLoop=1;jettySize=auto;html=1;" edge="1" parent="WIyWlLk6GJQsqaUBKTNV-1" source="9peToC7sFNTnHr3aSLA_-3" target="9peToC7sFNTnHr3aSLA_-4">
          <mxGeometry relative="1" as="geometry" />
        </mxCell>
        <mxCell id="9peToC7sFNTnHr3aSLA_-3" value="ondeIr = &#39;s&lt;span style=&quot;background-color: initial;&quot;&gt;&#39;&lt;/span&gt;" style="rhombus;whiteSpace=wrap;html=1;" vertex="1" parent="WIyWlLk6GJQsqaUBKTNV-1">
          <mxGeometry x="690" y="1765" width="129" height="100" as="geometry" />
        </mxCell>
        <mxCell id="fKjJxar6_on90sx515pE-21" style="edgeStyle=orthogonalEdgeStyle;rounded=0;orthogonalLoop=1;jettySize=auto;html=1;exitX=0;exitY=0;exitDx=96.25;exitDy=70;exitPerimeter=0;entryX=1;entryY=0.5;entryDx=0;entryDy=0;" edge="1" parent="WIyWlLk6GJQsqaUBKTNV-1" source="9peToC7sFNTnHr3aSLA_-4" target="lA4oFmGLLZb_DYhbLBO6-23">
          <mxGeometry relative="1" as="geometry" />
        </mxCell>
        <mxCell id="9peToC7sFNTnHr3aSLA_-4" value="&quot;Vamos ficar em casa!&quot;" style="shape=display;whiteSpace=wrap;html=1;" vertex="1" parent="WIyWlLk6GJQsqaUBKTNV-1">
          <mxGeometry x="663.5" y="1930" width="182" height="70" as="geometry" />
        </mxCell>
        <mxCell id="AUA9V2C7m6RvpDGXAZIM-4" style="edgeStyle=orthogonalEdgeStyle;rounded=0;orthogonalLoop=1;jettySize=auto;html=1;exitX=1;exitY=0.5;exitDx=0;exitDy=0;exitPerimeter=0;entryX=0;entryY=0.5;entryDx=0;entryDy=0;" edge="1" parent="WIyWlLk6GJQsqaUBKTNV-1" source="9peToC7sFNTnHr3aSLA_-5" target="fKjJxar6_on90sx515pE-0">
          <mxGeometry relative="1" as="geometry">
            <Array as="points">
              <mxPoint x="1082" y="1661" />
              <mxPoint x="1258" y="1661" />
            </Array>
          </mxGeometry>
        </mxCell>
        <mxCell id="9peToC7sFNTnHr3aSLA_-5" value="&quot;Vamos ao bar!&quot;" style="shape=display;whiteSpace=wrap;html=1;" vertex="1" parent="WIyWlLk6GJQsqaUBKTNV-1">
          <mxGeometry x="900" y="1630" width="182" height="70" as="geometry" />
        </mxCell>
        <mxCell id="fKjJxar6_on90sx515pE-23" style="edgeStyle=orthogonalEdgeStyle;rounded=0;orthogonalLoop=1;jettySize=auto;html=1;entryX=1;entryY=0.5;entryDx=0;entryDy=0;" edge="1" parent="WIyWlLk6GJQsqaUBKTNV-1" source="9peToC7sFNTnHr3aSLA_-6" target="lA4oFmGLLZb_DYhbLBO6-23">
          <mxGeometry relative="1" as="geometry">
            <Array as="points">
              <mxPoint x="1001" y="2065" />
            </Array>
          </mxGeometry>
        </mxCell>
        <mxCell id="9peToC7sFNTnHr3aSLA_-6" value="&quot;Vamos ao show!&quot;" style="shape=display;whiteSpace=wrap;html=1;" vertex="1" parent="WIyWlLk6GJQsqaUBKTNV-1">
          <mxGeometry x="910" y="1780" width="182" height="70" as="geometry" />
        </mxCell>
        <mxCell id="Xgqi5hH7NTYgZCnQ6lqg-1" style="edgeStyle=orthogonalEdgeStyle;rounded=0;orthogonalLoop=1;jettySize=auto;html=1;exitX=1;exitY=0.5;exitDx=0;exitDy=0;entryX=0;entryY=0.5;entryDx=0;entryDy=0;entryPerimeter=0;" edge="1" parent="WIyWlLk6GJQsqaUBKTNV-1" source="9peToC7sFNTnHr3aSLA_-2" target="9peToC7sFNTnHr3aSLA_-5">
          <mxGeometry relative="1" as="geometry" />
        </mxCell>
        <mxCell id="Xgqi5hH7NTYgZCnQ6lqg-2" style="edgeStyle=orthogonalEdgeStyle;rounded=0;orthogonalLoop=1;jettySize=auto;html=1;" edge="1" parent="WIyWlLk6GJQsqaUBKTNV-1" source="9peToC7sFNTnHr3aSLA_-3" target="9peToC7sFNTnHr3aSLA_-6">
          <mxGeometry relative="1" as="geometry" />
        </mxCell>
        <mxCell id="hCvEX53fSOxIPJyb_ZZT-1" value="V" style="text;html=1;align=center;verticalAlign=middle;whiteSpace=wrap;rounded=0;" vertex="1" parent="WIyWlLk6GJQsqaUBKTNV-1">
          <mxGeometry x="819" y="1635" width="60" height="30" as="geometry" />
        </mxCell>
        <mxCell id="hCvEX53fSOxIPJyb_ZZT-2" value="V" style="text;html=1;align=center;verticalAlign=middle;whiteSpace=wrap;rounded=0;" vertex="1" parent="WIyWlLk6GJQsqaUBKTNV-1">
          <mxGeometry x="819" y="1785" width="60" height="30" as="geometry" />
        </mxCell>
        <mxCell id="hCvEX53fSOxIPJyb_ZZT-3" value="F" style="text;html=1;align=center;verticalAlign=middle;whiteSpace=wrap;rounded=0;" vertex="1" parent="WIyWlLk6GJQsqaUBKTNV-1">
          <mxGeometry x="700" y="1885" width="60" height="30" as="geometry" />
        </mxCell>
        <mxCell id="hCvEX53fSOxIPJyb_ZZT-4" value="F" style="text;html=1;align=center;verticalAlign=middle;whiteSpace=wrap;rounded=0;" vertex="1" parent="WIyWlLk6GJQsqaUBKTNV-1">
          <mxGeometry x="700" y="1725" width="60" height="30" as="geometry" />
        </mxCell>
        <mxCell id="fKjJxar6_on90sx515pE-0" value="" style="triangle;whiteSpace=wrap;html=1;direction=south;" vertex="1" parent="WIyWlLk6GJQsqaUBKTNV-1">
          <mxGeometry x="1183" y="1681" width="150" height="80" as="geometry" />
        </mxCell>
        <mxCell id="fKjJxar6_on90sx515pE-24" style="edgeStyle=orthogonalEdgeStyle;rounded=0;orthogonalLoop=1;jettySize=auto;html=1;exitX=1;exitY=0.75;exitDx=0;exitDy=0;entryX=1;entryY=0.5;entryDx=0;entryDy=0;" edge="1" parent="WIyWlLk6GJQsqaUBKTNV-1" source="fKjJxar6_on90sx515pE-2" target="lA4oFmGLLZb_DYhbLBO6-23">
          <mxGeometry relative="1" as="geometry">
            <Array as="points">
              <mxPoint x="1380" y="1719" />
              <mxPoint x="1380" y="2065" />
            </Array>
          </mxGeometry>
        </mxCell>
        <mxCell id="fKjJxar6_on90sx515pE-2" value="dose != &#39;n&#39;" style="text;html=1;align=center;verticalAlign=middle;whiteSpace=wrap;rounded=0;" vertex="1" parent="WIyWlLk6GJQsqaUBKTNV-1">
          <mxGeometry x="1220.5" y="1696" width="75" height="30" as="geometry" />
        </mxCell>
        <mxCell id="fKjJxar6_on90sx515pE-3" value="&quot;Deseja tomar mais uma?(s/n) &quot;" style="shape=display;whiteSpace=wrap;html=1;" vertex="1" parent="WIyWlLk6GJQsqaUBKTNV-1">
          <mxGeometry x="1185" y="1823" width="146" height="51" as="geometry" />
        </mxCell>
        <mxCell id="fKjJxar6_on90sx515pE-4" style="edgeStyle=orthogonalEdgeStyle;rounded=0;orthogonalLoop=1;jettySize=auto;html=1;exitX=0;exitY=0;exitDx=68.75;exitDy=50;exitPerimeter=0;entryX=0;entryY=0;entryDx=72.5;entryDy=0;entryPerimeter=0;" edge="1" parent="WIyWlLk6GJQsqaUBKTNV-1" target="fKjJxar6_on90sx515pE-3">
          <mxGeometry relative="1" as="geometry">
            <mxPoint x="1257.75" y="1761" as="sourcePoint" />
          </mxGeometry>
        </mxCell>
        <mxCell id="fKjJxar6_on90sx515pE-5" value="dose" style="html=1;strokeWidth=2;shape=manualInput;whiteSpace=wrap;rounded=1;size=26;arcSize=0;" vertex="1" parent="WIyWlLk6GJQsqaUBKTNV-1">
          <mxGeometry x="1193" y="1926" width="130" height="60" as="geometry" />
        </mxCell>
        <mxCell id="fKjJxar6_on90sx515pE-20" style="edgeStyle=orthogonalEdgeStyle;rounded=0;orthogonalLoop=1;jettySize=auto;html=1;exitX=0;exitY=0.5;exitDx=0;exitDy=0;entryX=0;entryY=0.75;entryDx=0;entryDy=0;" edge="1" parent="WIyWlLk6GJQsqaUBKTNV-1" source="fKjJxar6_on90sx515pE-8" target="fKjJxar6_on90sx515pE-2">
          <mxGeometry relative="1" as="geometry">
            <Array as="points">
              <mxPoint x="1140" y="2030" />
              <mxPoint x="1140" y="1719" />
            </Array>
          </mxGeometry>
        </mxCell>
        <mxCell id="fKjJxar6_on90sx515pE-8" value="" style="ellipse;whiteSpace=wrap;html=1;aspect=fixed;" vertex="1" parent="WIyWlLk6GJQsqaUBKTNV-1">
          <mxGeometry x="1238" y="2010" width="40" height="40" as="geometry" />
        </mxCell>
        <mxCell id="fKjJxar6_on90sx515pE-19" style="edgeStyle=orthogonalEdgeStyle;rounded=0;orthogonalLoop=1;jettySize=auto;html=1;entryX=0.495;entryY=0.223;entryDx=0;entryDy=0;entryPerimeter=0;" edge="1" parent="WIyWlLk6GJQsqaUBKTNV-1" source="fKjJxar6_on90sx515pE-3" target="fKjJxar6_on90sx515pE-5">
          <mxGeometry relative="1" as="geometry" />
        </mxCell>
      </root>
    </mxGraphModel>
  </diagram>
</mxfile>
